STARTFONT 2.1
COMMENT This font is still under development.
COMMENT You can use, copy, modify, distribute this file for free.
COMMENT
COMMENT This font was created by modifying fg-20.bdf distributed with
COMMENT X.V11R3 under the directory contrib/fonts/bdf/oldx11.
COMMENT The comment below is the original one.
COMMENT -------------------------------------------------------------
COMMENT the Lisp Machine name for this font was "20fg.ast"
COMMENT -------------------------------------------------------------
COMMENT 91.12.14 modified by K.Handa <handa@etl.go.jp>
COMMENT   - ISO8859-1 Latin-1 glyphs are added.
COMMENT This font is very suitable when used with:
COMMENT   -jis-fixed-medium-r-normal--24-230-75-75-c-240-jisx0208.1983-0
COMMENT 92.06.23 modified by Takahashi N. <ntakahas@etl.go.jp>
COMMENT 92.07.09 modified by Takahashi N. <ntakahas@etl.go.jp>
COMMENT   - all BBX are changed to 12 24 0 -2
COMMENT 94.09.14 modified by Takahashi N. <ntakahas@etl.go.jp>
COMMENT 99.01.18 modified from etl24-latin1.bdf by <handa@etl.go.jp>
FONT -Etl-Fixed-Medium-I-Normal--24-240-72-72-C-120-ISO8859-1
SIZE 24 72 72
FONTBOUNDINGBOX 12 24 0 -2
STARTPROPERTIES 19
FONTNAME_REGISTRY ""
FOUNDRY "ETL"
FAMILY_NAME "Fixed"
WEIGHT_NAME "Medium"
SLANT "I"
SETWIDTH_NAME "Normal"
ADD_STYLE_NAME ""
PIXEL_SIZE 24
POINT_SIZE 240
RESOLUTION_X 72
RESOLUTION_Y 72
SPACING "C"
AVERAGE_WIDTH 120
CHARSET_REGISTRY "ISO8859"
CHARSET_ENCODING "1"
DEFAULT_CHAR 32
FONT_DESCENT 2
FONT_ASCENT 22
_MULE_BASELINE_OFFSET -3
ENDPROPERTIES
CHARS 191
STARTCHAR SPACE
ENCODING 32
SWIDTH 500 0
DWIDTH 12 0
BBX 12 24 0 -2
BITMAP
0000
0000
0000
0000
0000
0000
0000
0000
0000
0000
0000
0000
0000
0000
0000
0000
0000
0000
0000
0000
0000
0000
0000
0000
ENDCHAR
STARTCHAR EXCLAMATION MARK
ENCODING 33
SWIDTH 500 0
DWIDTH 12 0
BBX 12 24 0 -2
BITMAP
0000
0000
0000
0000
0000
0300
0300
0300
0600
0600
0600
0600
0c00
0c00
0c00
0000
0000
1800
3c00
1800
0000
0000
0000
0000
ENDCHAR
STARTCHAR QUOTATION MARK
ENCODING 34
SWIDTH 500 0
DWIDTH 12 0
BBX 12 24 0 -2
BITMAP
0000
0000
0000
0000
0cc0
0cc0
0cc0
0cc0
1980
0000
0000
0000
0000
0000
0000
0000
0000
0000
0000
0000
0000
0000
0000
0000
ENDCHAR
STARTCHAR NUMBER SIGN
ENCODING 35
SWIDTH 500 0
DWIDTH 12 0
BBX 12 24 0 -2
BITMAP
0000
0000
0000
0000
0000
0660
0660
0660
3fe0
3fe0
1980
1980
3300
3300
ff80
ff80
cc00
cc00
cc00
0000
0000
0000
0000
0000
ENDCHAR
STARTCHAR DOLLAR SIGN
ENCODING 36
SWIDTH 500 0
DWIDTH 12 0
BBX 12 24 0 -2
BITMAP
0000
0000
0000
0000
0000
0300
0fc0
1ff0
6660
6600
3e00
1f80
0f80
0cc0
0cc0
ccc0
ff00
fe00
1800
0000
0000
0000
0000
0000
ENDCHAR
STARTCHAR PERCENT SIGN
ENCODING 37
SWIDTH 500 0
DWIDTH 12 0
BBX 12 24 0 -2
BITMAP
0000
0000
0000
0000
0000
1c60
3e60
36c0
7d80
3b00
0300
0600
0c00
1800
1b80
37c0
6d80
cf80
c700
0000
0000
0000
0000
0000
ENDCHAR
STARTCHAR AMPERSAND
ENCODING 38
SWIDTH 500 0
DWIDTH 12 0
BBX 12 24 0 -2
BITMAP
0000
0000
0000
0000
0000
0380
07c0
0ee0
18c0
1980
0f80
1f00
7c00
e6c0
c3c0
c380
8600
ff80
7980
0000
0000
0000
0000
0000
ENDCHAR
STARTCHAR APOSTROPHE
ENCODING 39
SWIDTH 500 0
DWIDTH 12 0
BBX 12 24 0 -2
BITMAP
0000
0000
0000
0180
0780
0780
0180
0180
0600
0c00
0000
0000
0000
0000
0000
0000
0000
0000
0000
0000
0000
0000
0000
0000
ENDCHAR
STARTCHAR LEFT PARENTHESIS
ENCODING 40
SWIDTH 500 0
DWIDTH 12 0
BBX 12 24 0 -2
BITMAP
0000
0000
0000
0000
0000
00c0
0180
0380
0600
0e00
0c00
0c00
1800
1800
1c00
0c00
1c00
0c00
0600
0000
0000
0000
0000
0000
ENDCHAR
STARTCHAR RIGHT PARENTHESIS
ENCODING 41
SWIDTH 500 0
DWIDTH 12 0
BBX 12 24 0 -2
BITMAP
0000
0000
0000
0000
0000
0c00
0600
0700
0600
0700
0300
0300
0600
0600
0e00
0c00
3800
3000
6000
0000
0000
0000
0000
0000
ENDCHAR
STARTCHAR ASTERISK
ENCODING 42
SWIDTH 500 0
DWIDTH 12 0
BBX 12 24 0 -2
BITMAP
0000
0000
0000
0000
0000
0000
0000
0300
0600
6660
76e0
1f80
0c00
3f00
edc0
ccc0
1800
1800
0000
0000
0000
0000
0000
0000
ENDCHAR
STARTCHAR PLUS SIGN
ENCODING 43
SWIDTH 500 0
DWIDTH 12 0
BBX 12 24 0 -2
BITMAP
0000
0000
0000
0000
0000
0000
0000
0000
0600
0600
0600
0600
ffc0
ffc0
0c00
0c00
1800
1800
0000
0000
0000
0000
0000
0000
ENDCHAR
STARTCHAR COMMA
ENCODING 44
SWIDTH 500 0
DWIDTH 12 0
BBX 12 24 0 -2
BITMAP
0000
0000
0000
0000
0000
0000
0000
0000
0000
0000
0000
0000
0000
0000
0000
0c00
3c00
3c00
0c00
0c00
1800
3000
0000
0000
ENDCHAR
STARTCHAR HYPHEN, MINUS SIGN
ENCODING 45
SWIDTH 500 0
DWIDTH 12 0
BBX 12 24 0 -2
BITMAP
0000
0000
0000
0000
0000
0000
0000
0000
0000
0000
0000
0000
ffc0
ffc0
0000
0000
0000
0000
0000
0000
0000
0000
0000
0000
ENDCHAR
STARTCHAR FULL STOP
ENCODING 46
SWIDTH 500 0
DWIDTH 12 0
BBX 12 24 0 -2
BITMAP
0000
0000
0000
0000
0000
0000
0000
0000
0000
0000
0000
0000
0000
0000
0000
0c00
3c00
3c00
1800
0000
0000
0000
0000
0000
ENDCHAR
STARTCHAR SOLIDUS
ENCODING 47
SWIDTH 500 0
DWIDTH 12 0
BBX 12 24 0 -2
BITMAP
0000
0000
0000
0000
0000
0060
0060
00c0
0180
0300
0300
0600
0c00
1800
1800
3000
6000
c000
c000
0000
0000
0000
0000
0000
ENDCHAR
STARTCHAR DIGIT ZERO
ENCODING 48
SWIDTH 500 0
DWIDTH 12 0
BBX 12 24 0 -2
BITMAP
0000
0000
0000
0000
0000
0780
0fc0
1ce0
30c0
31c0
33c0
36c0
7980
7180
6180
6180
e700
7e00
3c00
0000
0000
0000
0000
0000
ENDCHAR
STARTCHAR DIGIT ONE
ENCODING 49
SWIDTH 500 0
DWIDTH 12 0
BBX 12 24 0 -2
BITMAP
0000
0000
0000
0000
0000
0300
0700
0f00
3600
0600
0600
0600
0c00
0c00
0c00
0c00
1800
ff00
ff00
0000
0000
0000
0000
0000
ENDCHAR
STARTCHAR DIGIT TWO
ENCODING 50
SWIDTH 500 0
DWIDTH 12 0
BBX 12 24 0 -2
BITMAP
0000
0000
0000
0000
0000
07c0
0fe0
1870
3060
0060
00c0
0180
0600
0c00
1800
3000
c000
ff80
ff80
0000
0000
0000
0000
0000
ENDCHAR
STARTCHAR DIGIT THREE
ENCODING 51
SWIDTH 500 0
DWIDTH 12 0
BBX 12 24 0 -2
BITMAP
0000
0000
0000
0000
0000
07c0
0fe0
1870
3060
0060
00c0
0780
0f80
00c0
00c0
60c0
c380
7f00
3e00
0000
0000
0000
0000
0000
ENDCHAR
STARTCHAR DIGIT FOUR
ENCODING 52
SWIDTH 500 0
DWIDTH 12 0
BBX 12 24 0 -2
BITMAP
0000
0000
0000
0000
0000
0180
0180
0300
0600
0d80
0d80
1980
3300
6300
7fc0
7fc0
0600
0600
0600
0000
0000
0000
0000
0000
ENDCHAR
STARTCHAR DIGIT FIVE
ENCODING 53
SWIDTH 500 0
DWIDTH 12 0
BBX 12 24 0 -2
BITMAP
0000
0000
0000
0000
0000
1fe0
1fe0
1800
3000
3000
3f80
3fc0
01c0
00c0
00c0
60c0
c380
7f00
3e00
0000
0000
0000
0000
0000
ENDCHAR
STARTCHAR DIGIT SIX
ENCODING 54
SWIDTH 500 0
DWIDTH 12 0
BBX 12 24 0 -2
BITMAP
0000
0000
0000
0000
0000
07c0
0fe0
1c30
3060
3000
3780
3fc0
71c0
60c0
60c0
60c0
e380
7f00
3e00
0000
0000
0000
0000
0000
ENDCHAR
STARTCHAR DIGIT SEVEN
ENCODING 55
SWIDTH 500 0
DWIDTH 12 0
BBX 12 24 0 -2
BITMAP
0000
0000
0000
0000
0000
1ff0
1ff0
0060
00c0
0180
0180
0300
0600
0c00
0c00
1800
3000
6000
6000
0000
0000
0000
0000
0000
ENDCHAR
STARTCHAR DIGIT EIGHT
ENCODING 56
SWIDTH 500 0
DWIDTH 12 0
BBX 12 24 0 -2
BITMAP
0000
0000
0000
0000
0000
0780
0fc0
1860
30c0
30c0
1f80
1f80
7380
e1c0
c0c0
c0c0
c380
ff00
7e00
0000
0000
0000
0000
0000
ENDCHAR
STARTCHAR DIGIT NINE
ENCODING 57
SWIDTH 500 0
DWIDTH 12 0
BBX 12 24 0 -2
BITMAP
0000
0000
0000
0000
0000
07c0
0fe0
1c70
3060
3060
38e0
1fe0
1ec0
00c0
00c0
60c0
c380
7f00
3e00
0000
0000
0000
0000
0000
ENDCHAR
STARTCHAR COLON
ENCODING 58
SWIDTH 500 0
DWIDTH 12 0
BBX 12 24 0 -2
BITMAP
0000
0000
0000
0000
0000
0000
0000
0000
0600
0f00
0f00
0600
0000
0000
0000
0c00
3c00
3c00
1800
0000
0000
0000
0000
0000
ENDCHAR
STARTCHAR SEMICOLON
ENCODING 59
SWIDTH 500 0
DWIDTH 12 0
BBX 12 24 0 -2
BITMAP
0000
0000
0000
0000
0000
0000
0000
0000
0600
0f00
0f00
0600
0000
0000
0000
0c00
3c00
3c00
0c00
0c00
1800
3000
0000
0000
ENDCHAR
STARTCHAR LESS-THAN SIGN
ENCODING 60
SWIDTH 500 0
DWIDTH 12 0
BBX 12 24 0 -2
BITMAP
0000
0000
0000
0000
0000
0000
0000
0000
0060
01c0
0700
1e00
f000
f000
3c00
0f00
0700
0180
0000
0000
0000
0000
0000
0000
ENDCHAR
STARTCHAR EQUALS SIGN
ENCODING 61
SWIDTH 500 0
DWIDTH 12 0
BBX 12 24 0 -2
BITMAP
0000
0000
0000
0000
0000
0000
0000
0000
0000
0000
7fe0
7fe0
0000
0000
ffc0
ffc0
0000
0000
0000
0000
0000
0000
0000
0000
ENDCHAR
STARTCHAR GREATER-THAN SIGN
ENCODING 62
SWIDTH 500 0
DWIDTH 12 0
BBX 12 24 0 -2
BITMAP
0000
0000
0000
0000
0000
0000
0000
0000
6000
3800
0e00
0780
03c0
03c0
0f00
1c00
e000
8000
0000
0000
0000
0000
0000
0000
ENDCHAR
STARTCHAR QUESTION MARK
ENCODING 63
SWIDTH 500 0
DWIDTH 12 0
BBX 12 24 0 -2
BITMAP
0000
0000
0000
0000
0000
0780
0fc0
1ce0
20c0
00c0
0180
0300
0c00
0c00
0c00
0000
0000
1800
3c00
1800
0000
0000
0000
0000
ENDCHAR
STARTCHAR COMMERCIAL AT
ENCODING 64
SWIDTH 500 0
DWIDTH 12 0
BBX 12 24 0 -2
BITMAP
0000
0000
0000
0000
0000
07c0
0fe0
1c30
3060
33e0
37e0
3660
6cc0
6cc0
6fc0
6780
e000
7f80
3f80
0000
0000
0000
0000
0000
ENDCHAR
STARTCHAR CAPITAL LETTER A
ENCODING 65
SWIDTH 500 0
DWIDTH 12 0
BBX 12 24 0 -2
BITMAP
0000
0000
0000
0000
0000
07c0
0fe0
1c70
3060
3060
3060
3fe0
7fc0
60c0
60c0
60c0
c180
c180
c180
0000
0000
0000
0000
0000
ENDCHAR
STARTCHAR CAPITAL LETTER B
ENCODING 66
SWIDTH 500 0
DWIDTH 12 0
BBX 12 24 0 -2
BITMAP
0000
0000
0000
0000
0000
1f80
1fc0
18e0
30c0
30c0
3180
3f80
7f80
6180
60c0
60c0
c380
ff00
fe00
0000
0000
0000
0000
0000
ENDCHAR
STARTCHAR CAPITAL LETTER C
ENCODING 67
SWIDTH 500 0
DWIDTH 12 0
BBX 12 24 0 -2
BITMAP
0000
0000
0000
0000
0000
07c0
0fe0
1c70
3060
3000
3000
3000
6000
6000
6000
60c0
e380
7f00
3e00
0000
0000
0000
0000
0000
ENDCHAR
STARTCHAR CAPITAL LETTER D
ENCODING 68
SWIDTH 500 0
DWIDTH 12 0
BBX 12 24 0 -2
BITMAP
0000
0000
0000
0000
0000
1fc0
1fe0
1870
3060
3060
3060
3060
60c0
60c0
60c0
60c0
c380
ff00
fe00
0000
0000
0000
0000
0000
ENDCHAR
STARTCHAR CAPITAL LETTER E
ENCODING 69
SWIDTH 500 0
DWIDTH 12 0
BBX 12 24 0 -2
BITMAP
0000
0000
0000
0000
0000
1ff0
1ff0
1800
3000
3000
3000
3f80
7f00
6000
6000
6000
c000
ff80
ff80
0000
0000
0000
0000
0000
ENDCHAR
STARTCHAR CAPITAL LETTER F
ENCODING 70
SWIDTH 500 0
DWIDTH 12 0
BBX 12 24 0 -2
BITMAP
0000
0000
0000
0000
0000
1ff0
1ff0
1800
3000
3000
3000
3f80
7f00
6000
6000
6000
c000
c000
c000
0000
0000
0000
0000
0000
ENDCHAR
STARTCHAR CAPITAL LETTER G
ENCODING 71
SWIDTH 500 0
DWIDTH 12 0
BBX 12 24 0 -2
BITMAP
0000
0000
0000
0000
0000
07c0
0fe0
1c70
3060
3000
3000
3000
63c0
63c0
60c0
60c0
e380
7f00
3e00
0000
0000
0000
0000
0000
ENDCHAR
STARTCHAR CAPITAL LETTER H
ENCODING 72
SWIDTH 500 0
DWIDTH 12 0
BBX 12 24 0 -2
BITMAP
0000
0000
0000
0000
0000
1830
1830
1830
3060
3060
3060
3fe0
7fc0
60c0
60c0
60c0
c180
c180
c180
0000
0000
0000
0000
0000
ENDCHAR
STARTCHAR CAPITAL LETTER I
ENCODING 73
SWIDTH 500 0
DWIDTH 12 0
BBX 12 24 0 -2
BITMAP
0000
0000
0000
0000
0000
0fc0
0fc0
0300
0600
0600
0600
0600
0c00
0c00
0c00
0c00
1800
7e00
7e00
0000
0000
0000
0000
0000
ENDCHAR
STARTCHAR CAPITAL LETTER J
ENCODING 74
SWIDTH 500 0
DWIDTH 12 0
BBX 12 24 0 -2
BITMAP
0000
0000
0000
0000
0000
0030
0030
0030
0060
0060
0060
0060
00c0
00c0
00c0
60c0
c380
7f00
3e00
0000
0000
0000
0000
0000
ENDCHAR
STARTCHAR CAPITAL LETTER K
ENCODING 75
SWIDTH 500 0
DWIDTH 12 0
BBX 12 24 0 -2
BITMAP
0000
0000
0000
0000
0000
1830
1860
18c0
3300
3600
3c00
3800
7800
6c00
6600
6300
c300
c180
c080
0000
0000
0000
0000
0000
ENDCHAR
STARTCHAR CAPITAL LETTER L
ENCODING 76
SWIDTH 500 0
DWIDTH 12 0
BBX 12 24 0 -2
BITMAP
0000
0000
0000
0000
0000
1800
1800
1800
3000
3000
3000
3000
6000
6000
6000
6000
c000
ff80
ff80
0000
0000
0000
0000
0000
ENDCHAR
STARTCHAR CAPITAL LETTER M
ENCODING 77
SWIDTH 500 0
DWIDTH 12 0
BBX 12 24 0 -2
BITMAP
0000
0000
0000
0000
0000
1830
1c70
1c70
3de0
3fe0
3760
3760
64c0
60c0
60c0
60c0
c180
c180
c180
0000
0000
0000
0000
0000
ENDCHAR
STARTCHAR CAPITAL LETTER N
ENCODING 78
SWIDTH 500 0
DWIDTH 12 0
BBX 12 24 0 -2
BITMAP
0000
0000
0000
0000
0000
1830
1c30
1c30
3c60
3c60
3660
3660
66c0
66c0
63c0
63c0
c380
c380
c180
0000
0000
0000
0000
0000
ENDCHAR
STARTCHAR CAPITAL LETTER O
ENCODING 79
SWIDTH 500 0
DWIDTH 12 0
BBX 12 24 0 -2
BITMAP
0000
0000
0000
0000
0000
07c0
0fe0
1c70
3060
3060
3060
3060
60c0
60c0
60c0
60c0
e380
7f00
3e00
0000
0000
0000
0000
0000
ENDCHAR
STARTCHAR CAPITAL LETTER P
ENCODING 80
SWIDTH 500 0
DWIDTH 12 0
BBX 12 24 0 -2
BITMAP
0000
0000
0000
0000
0000
1fc0
1fe0
1870
3060
3060
30e0
3fc0
7f00
6000
6000
6000
c000
c000
c000
0000
0000
0000
0000
0000
ENDCHAR
STARTCHAR CAPITAL LETTER Q
ENCODING 81
SWIDTH 500 0
DWIDTH 12 0
BBX 12 24 0 -2
BITMAP
0000
0000
0000
0000
0000
07c0
0fe0
1c70
3060
3060
3060
3060
60c0
60c0
60c0
63c0
e780
7f00
3fc0
00c0
0000
0000
0000
0000
ENDCHAR
STARTCHAR CAPITAL LETTER R
ENCODING 82
SWIDTH 500 0
DWIDTH 12 0
BBX 12 24 0 -2
BITMAP
0000
0000
0000
0000
0000
1fc0
1fe0
1870
3060
3060
30e0
3fc0
7f00
6300
6300
6180
c300
c180
c180
0000
0000
0000
0000
0000
ENDCHAR
STARTCHAR CAPITAL LETTER S
ENCODING 83
SWIDTH 500 0
DWIDTH 12 0
BBX 12 24 0 -2
BITMAP
0000
0000
0000
0000
0000
07c0
0fe0
1870
3060
3000
3800
1f80
1f80
01c0
00c0
60c0
c380
ff00
7e00
0000
0000
0000
0000
0000
ENDCHAR
STARTCHAR CAPITAL LETTER T
ENCODING 84
SWIDTH 500 0
DWIDTH 12 0
BBX 12 24 0 -2
BITMAP
0000
0000
0000
0000
0000
3ff0
3ff0
0300
0600
0600
0600
0600
0c00
0c00
0c00
0c00
1800
1800
1800
0000
0000
0000
0000
0000
ENDCHAR
STARTCHAR CAPITAL LETTER U
ENCODING 85
SWIDTH 500 0
DWIDTH 12 0
BBX 12 24 0 -2
BITMAP
0000
0000
0000
0000
0000
1830
1830
1830
3060
3060
3060
3060
60c0
60c0
60c0
60c0
e380
7f00
3e00
0000
0000
0000
0000
0000
ENDCHAR
STARTCHAR CAPITAL LETTER V
ENCODING 86
SWIDTH 500 0
DWIDTH 12 0
BBX 12 24 0 -2
BITMAP
0000
0000
0000
0000
0000
3030
3030
3030
30c0
30c0
30c0
1980
3300
3300
1200
1e00
3c00
1800
1800
0000
0000
0000
0000
0000
ENDCHAR
STARTCHAR CAPITAL LETTER W
ENCODING 87
SWIDTH 500 0
DWIDTH 12 0
BBX 12 24 0 -2
BITMAP
0000
0000
0000
0000
0000
1830
1830
1830
3060
3060
3060
3260
6ec0
6ec0
7bc0
7bc0
e380
e380
c180
0000
0000
0000
0000
0000
ENDCHAR
STARTCHAR CAPITAL LETTER X
ENCODING 88
SWIDTH 500 0
DWIDTH 12 0
BBX 12 24 0 -2
BITMAP
0000
0000
0000
0000
0000
1830
1830
0c60
18c0
0d80
0d80
0700
0e00
1b00
1b00
3180
6300
c180
c180
0000
0000
0000
0000
0000
ENDCHAR
STARTCHAR CAPITAL LETTER Y
ENCODING 89
SWIDTH 500 0
DWIDTH 12 0
BBX 12 24 0 -2
BITMAP
0000
0000
0000
0000
0000
3030
3030
1860
30c0
1980
1f80
0f00
0c00
0c00
0c00
0c00
1800
1800
1800
0000
0000
0000
0000
0000
ENDCHAR
STARTCHAR CAPITAL LETTER Z
ENCODING 90
SWIDTH 500 0
DWIDTH 12 0
BBX 12 24 0 -2
BITMAP
0000
0000
0000
0000
0000
3ff0
3ff0
0030
00e0
01c0
0380
0700
1c00
3800
7000
e000
8000
ff80
ff80
0000
0000
0000
0000
0000
ENDCHAR
STARTCHAR LEFT SQUARE BRACKET
ENCODING 91
SWIDTH 500 0
DWIDTH 12 0
BBX 12 24 0 -2
BITMAP
0000
0000
0000
0000
07c0
07c0
0600
0600
0c00
0c00
0c00
0c00
1800
1800
1800
1800
3000
3e00
3e00
0000
0000
0000
0000
0000
ENDCHAR
STARTCHAR REVERSE SOLIDUS
ENCODING 92
SWIDTH 500 0
DWIDTH 12 0
BBX 12 24 0 -2
BITMAP
0000
0000
0000
0000
0000
1800
1800
0c00
1800
0c00
0c00
0600
0c00
0600
0600
0300
0600
0300
0300
0000
0000
0000
0000
0000
ENDCHAR
STARTCHAR RIGHT SQUARE BRACKET
ENCODING 93
SWIDTH 500 0
DWIDTH 12 0
BBX 12 24 0 -2
BITMAP
0000
0000
0000
0000
0f80
0f80
0180
0180
0300
0300
0300
0300
0600
0600
0600
0600
0c00
7c00
7c00
0000
0000
0000
0000
0000
ENDCHAR
STARTCHAR CIRCUMFLEX ACCENT
ENCODING 94
SWIDTH 500 0
DWIDTH 12 0
BBX 12 24 0 -2
BITMAP
0000
0000
0000
0000
0100
0380
06c0
0c60
3060
0000
0000
0000
0000
0000
0000
0000
0000
0000
0000
0000
0000
0000
0000
0000
ENDCHAR
STARTCHAR LOW LINE
ENCODING 95
SWIDTH 500 0
DWIDTH 12 0
BBX 12 24 0 -2
BITMAP
0000
0000
0000
0000
0000
0000
0000
0000
0000
0000
0000
0000
0000
0000
0000
0000
0000
0000
0000
0000
ffc0
ffc0
0000
0000
ENDCHAR
STARTCHAR GRAVE ACCENT
ENCODING 96
SWIDTH 500 0
DWIDTH 12 0
BBX 12 24 0 -2
BITMAP
0000
0000
0000
00c0
0300
0600
0600
0780
0f00
0600
0000
0000
0000
0000
0000
0000
0000
0000
0000
0000
0000
0000
0000
0000
ENDCHAR
STARTCHAR SMALL LETTER a
ENCODING 97
SWIDTH 500 0
DWIDTH 12 0
BBX 12 24 0 -2
BITMAP
0000
0000
0000
0000
0000
0000
0000
0000
0780
0fc0
1860
0060
0fc0
3fc0
60c0
61c0
c780
fd80
7980
0000
0000
0000
0000
0000
ENDCHAR
STARTCHAR SMALL LETTER b
ENCODING 98
SWIDTH 500 0
DWIDTH 12 0
BBX 12 24 0 -2
BITMAP
0000
0000
0000
0000
0000
1800
1800
1800
3000
3380
37c0
3ce0
70c0
60c0
60c0
70c0
f380
df00
ce00
0000
0000
0000
0000
0000
ENDCHAR
STARTCHAR SMALL LETTER c
ENCODING 99
SWIDTH 500 0
DWIDTH 12 0
BBX 12 24 0 -2
BITMAP
0000
0000
0000
0000
0000
0000
0000
0000
0000
0fc0
1fc0
3860
60c0
6000
6000
6000
e180
7f80
3f00
0000
0000
0000
0000
0000
ENDCHAR
STARTCHAR SMALL LETTER d
ENCODING 100
SWIDTH 500 0
DWIDTH 12 0
BBX 12 24 0 -2
BITMAP
0000
0000
0000
0000
0000
0030
0030
0030
0060
0f60
1fe0
38e0
60c0
60c0
60c0
61c0
c780
7d80
3980
0000
0000
0000
0000
0000
ENDCHAR
STARTCHAR SMALL LETTER e
ENCODING 101
SWIDTH 500 0
DWIDTH 12 0
BBX 12 24 0 -2
BITMAP
0000
0000
0000
0000
0000
0000
0000
0000
0000
0f80
1fc0
3860
60c0
7fc0
7fc0
6000
c180
7f80
3f00
0000
0000
0000
0000
0000
ENDCHAR
STARTCHAR SMALL LETTER f
ENCODING 102
SWIDTH 500 0
DWIDTH 12 0
BBX 12 24 0 -2
BITMAP
0000
0000
0000
0000
0000
01c0
03c0
0300
0600
0600
1f80
1f80
0c00
0c00
0c00
0c00
1800
1800
1800
0000
0000
0000
0000
0000
ENDCHAR
STARTCHAR SMALL LETTER g
ENCODING 103
SWIDTH 500 0
DWIDTH 12 0
BBX 12 24 0 -2
BITMAP
0000
0000
0000
0000
0000
0000
0000
0000
0000
0e60
1f60
39e0
61c0
60c0
60c0
60c0
e380
7f80
3d80
0180
0180
0180
3f00
1e00
ENDCHAR
STARTCHAR SMALL LETTER h
ENCODING 104
SWIDTH 500 0
DWIDTH 12 0
BBX 12 24 0 -2
BITMAP
0000
0000
0000
0000
0000
1800
1800
1800
3000
3380
37c0
3ce0
70c0
60c0
60c0
60c0
c180
c180
c180
0000
0000
0000
0000
0000
ENDCHAR
STARTCHAR SMALL LETTER i
ENCODING 105
SWIDTH 500 0
DWIDTH 12 0
BBX 12 24 0 -2
BITMAP
0000
0000
0000
0000
0000
0300
0300
0000
0000
0600
0600
0600
0c00
0c00
0c00
0c00
1800
1800
1800
0000
0000
0000
0000
0000
ENDCHAR
STARTCHAR SMALL LETTER j
ENCODING 106
SWIDTH 500 0
DWIDTH 12 0
BBX 12 24 0 -2
BITMAP
0000
0000
0000
0000
0000
0300
0300
0000
0000
0600
0600
0600
0c00
0c00
0c00
0c00
1800
1800
1800
1800
1800
f800
e000
0000
ENDCHAR
STARTCHAR SMALL LETTER k
ENCODING 107
SWIDTH 500 0
DWIDTH 12 0
BBX 12 24 0 -2
BITMAP
0000
0000
0000
0000
0000
0000
1800
1800
30c0
31c0
3380
3700
7c00
7800
7c00
6e00
ce00
c700
c300
0000
0000
0000
0000
0000
ENDCHAR
STARTCHAR SMALL LETTER l
ENCODING 108
SWIDTH 500 0
DWIDTH 12 0
BBX 12 24 0 -2
BITMAP
0000
0000
0000
0000
0000
0300
0300
0300
0600
0600
0600
0600
0c00
0c00
0c00
0c00
1800
1e00
0e00
0000
0000
0000
0000
0000
ENDCHAR
STARTCHAR SMALL LETTER m
ENCODING 109
SWIDTH 500 0
DWIDTH 12 0
BBX 12 24 0 -2
BITMAP
0000
0000
0000
0000
0000
0000
0000
0000
6000
6dc0
7fe0
6660
ccc0
ccc0
ccc0
ccc0
9980
9980
9980
0000
0000
0000
0000
0000
ENDCHAR
STARTCHAR SMALL LETTER n
ENCODING 110
SWIDTH 500 0
DWIDTH 12 0
BBX 12 24 0 -2
BITMAP
0000
0000
0000
0000
0000
0000
0000
0000
0000
3380
37c0
3c60
70c0
60c0
60c0
60c0
c180
c180
c180
0000
0000
0000
0000
0000
ENDCHAR
STARTCHAR SMALL LETTER o
ENCODING 111
SWIDTH 500 0
DWIDTH 12 0
BBX 12 24 0 -2
BITMAP
0000
0000
0000
0000
0000
0000
0000
0000
0000
0f80
1fc0
38e0
60c0
60c0
60c0
60c0
e380
7f00
3e00
0000
0000
0000
0000
0000
ENDCHAR
STARTCHAR SMALL LETTER p
ENCODING 112
SWIDTH 500 0
DWIDTH 12 0
BBX 12 24 0 -2
BITMAP
0000
0000
0000
0000
0000
0000
0000
0000
0000
19c0
1be0
1e70
3860
3060
3060
3860
79c0
6f80
6700
6000
c000
c000
c000
0000
ENDCHAR
STARTCHAR SMALL LETTER q
ENCODING 113
SWIDTH 500 0
DWIDTH 12 0
BBX 12 24 0 -2
BITMAP
0000
0000
0000
0000
0000
0000
0000
0000
0000
0730
0fb0
1cf0
30e0
3060
3060
30e0
73c0
3ec0
1cc0
00c0
0180
0180
0180
0000
ENDCHAR
STARTCHAR SMALL LETTER r
ENCODING 114
SWIDTH 500 0
DWIDTH 12 0
BBX 12 24 0 -2
BITMAP
0000
0000
0000
0000
0000
0000
0000
0000
0000
3380
37c0
3c60
70c0
6000
6000
6000
c000
c000
c000
0000
0000
0000
0000
0000
ENDCHAR
STARTCHAR SMALL LETTER s
ENCODING 115
SWIDTH 500 0
DWIDTH 12 0
BBX 12 24 0 -2
BITMAP
0000
0000
0000
0000
0000
0000
0000
0000
0000
1fc0
3fe0
3020
6000
3f00
1f80
00c0
c180
ff80
7f00
0000
0000
0000
0000
0000
ENDCHAR
STARTCHAR SMALL LETTER t
ENCODING 116
SWIDTH 500 0
DWIDTH 12 0
BBX 12 24 0 -2
BITMAP
0000
0000
0000
0000
0000
0000
0300
0300
0600
1f80
1f80
0600
0c00
0c00
0c00
0c00
1800
1e00
0e00
0000
0000
0000
0000
0000
ENDCHAR
STARTCHAR SMALL LETTER u
ENCODING 117
SWIDTH 500 0
DWIDTH 12 0
BBX 12 24 0 -2
BITMAP
0000
0000
0000
0000
0000
0000
0000
0000
0000
3060
3060
3060
60c0
60c0
60c0
61c0
e780
7d80
3980
0000
0000
0000
0000
0000
ENDCHAR
STARTCHAR SMALL LETTER v
ENCODING 118
SWIDTH 500 0
DWIDTH 12 0
BBX 12 24 0 -2
BITMAP
0000
0000
0000
0000
0000
0000
0000
0000
0000
6060
6060
30c0
6180
3300
3300
1e00
3c00
1800
1800
0000
0000
0000
0000
0000
ENDCHAR
STARTCHAR SMALL LETTER w
ENCODING 119
SWIDTH 500 0
DWIDTH 12 0
BBX 12 24 0 -2
BITMAP
0000
0000
0000
0000
0000
0000
0000
0000
0000
3060
3060
3060
60c0
64c0
6ec0
6ec0
f780
e380
c180
0000
0000
0000
0000
0000
ENDCHAR
STARTCHAR SMALL LETTER x
ENCODING 120
SWIDTH 500 0
DWIDTH 12 0
BBX 12 24 0 -2
BITMAP
0000
0000
0000
0000
0000
0000
0000
0000
0000
3060
3060
18c0
1b00
0e00
0e00
1b00
6300
c180
c180
0000
0000
0000
0000
0000
ENDCHAR
STARTCHAR SMALL LETTER y
ENCODING 121
SWIDTH 500 0
DWIDTH 12 0
BBX 12 24 0 -2
BITMAP
0000
0000
0000
0000
0000
0000
0000
0000
0000
3060
3060
3060
60c0
60c0
60c0
60c0
c380
7f80
3d80
0180
0300
0300
7f00
3c00
ENDCHAR
STARTCHAR SMALL LETTER z
ENCODING 122
SWIDTH 500 0
DWIDTH 12 0
BBX 12 24 0 -2
BITMAP
0000
0000
0000
0000
0000
0000
0000
0000
0000
3fe0
3fe0
00c0
0300
0600
0c00
1800
6000
ff80
ff80
0000
0000
0000
0000
0000
ENDCHAR
STARTCHAR LEFT CURLY BRACKET
ENCODING 123
SWIDTH 500 0
DWIDTH 12 0
BBX 12 24 0 -2
BITMAP
0000
0000
0000
0000
01c0
0300
0300
0300
0600
0600
0c00
1c00
1800
0c00
0c00
0c00
1800
1800
0e00
0000
0000
0000
0000
0000
ENDCHAR
STARTCHAR VERTICAL LINE
ENCODING 124
SWIDTH 500 0
DWIDTH 12 0
BBX 12 24 0 -2
BITMAP
0000
0180
0180
0180
0300
0300
0300
0300
0600
0600
0600
0600
0c00
0c00
0c00
0c00
1800
1800
1800
1800
3000
3000
3000
0000
ENDCHAR
STARTCHAR RIGHT CURLY BRACKET
ENCODING 125
SWIDTH 500 0
DWIDTH 12 0
BBX 12 24 0 -2
BITMAP
0000
0000
0000
0000
0e00
0300
0300
0300
0600
0600
0300
0380
0600
0c00
0c00
0c00
1800
1800
7000
0000
0000
0000
0000
0000
ENDCHAR
STARTCHAR TILDE
ENCODING 126
SWIDTH 500 0
DWIDTH 12 0
BBX 12 24 0 -2
BITMAP
0000
0000
0000
0000
0e10
1f30
13f0
30e0
0000
0000
0000
0000
0000
0000
0000
0000
0000
0000
0000
0000
0000
0000
0000
0000
ENDCHAR
STARTCHAR NO-BREAK SPACE                                                ,A (B
ENCODING 160
SWIDTH 500 0
DWIDTH 12 0
BBX 12 24 0 -2
BITMAP
0000
0000
0000
0000
0000
0000
0000
0000
0000
0000
0000
0000
0000
0000
0000
0000
0000
0000
0000
0000
0000
0000
0000
0000
ENDCHAR
STARTCHAR INVERTED EXCLAMATION MARK
ENCODING 161
SWIDTH 500 0
DWIDTH 12 0
BBX 12 24 0 -2
BITMAP
0000
0000
0000
0000
0300
0780
0300
0000
0000
0600
0600
0600
0c00
0c00
0c00
0c00
1800
1800
1800
0000
0000
0000
0000
0000
ENDCHAR
STARTCHAR CENT SIGN
ENCODING 162
SWIDTH 500 0
DWIDTH 12 0
BBX 12 24 0 -2
BITMAP
0000
0000
0000
0000
0000
0180
0180
07c0
1fc0
3b60
3360
3300
6600
66c0
76c0
3f80
3e00
0c00
0c00
0000
0000
0000
0000
0000
ENDCHAR
STARTCHAR POUND SIGN
ENCODING 163
SWIDTH 500 0
DWIDTH 12 0
BBX 12 24 0 -2
BITMAP
0000
0000
0000
0000
0000
03c0
07e0
0e60
1800
1800
1c00
3fc0
7f80
1800
1800
3f00
ff00
e380
c180
0000
0000
0000
0000
0000
ENDCHAR
STARTCHAR CURRENCY SIGN
ENCODING 164
SWIDTH 500 0
DWIDTH 12 0
BBX 12 24 0 -2
BITMAP
0000
0000
0000
0000
0000
0000
0000
3030
76e0
3fc0
1980
30c0
6180
3300
7f80
edc0
8180
0000
0000
0000
0000
0000
0000
0000
ENDCHAR
STARTCHAR YEN SIGN
ENCODING 165
SWIDTH 500 0
DWIDTH 12 0
BBX 12 24 0 -2
BITMAP
0000
0000
0000
0000
0000
1860
1ce0
0cc0
1f80
0f00
3fc0
3fc0
0c00
7f80
7f80
0c00
1800
1800
1800
0000
0000
0000
0000
0000
ENDCHAR
STARTCHAR BROKEN BAR
ENCODING 166
SWIDTH 500 0
DWIDTH 12 0
BBX 12 24 0 -2
BITMAP
0000
0180
0180
0180
0300
0300
0300
0300
0600
0600
0600
0000
0000
0c00
0c00
0c00
1800
1800
1800
1800
3000
3000
3000
0000
ENDCHAR
STARTCHAR PARAGRAPH SIGN
ENCODING 167
SWIDTH 500 0
DWIDTH 12 0
BBX 12 24 0 -2
BITMAP
0000
0000
0000
0000
07c0
0fe0
1c70
1830
3800
1f80
1fc0
3060
60c0
3f80
1f80
01c0
c180
e380
7f00
3e00
0000
0000
0000
0000
ENDCHAR
STARTCHAR DIAERESIS
ENCODING 168
SWIDTH 500 0
DWIDTH 12 0
BBX 12 24 0 -2
BITMAP
0000
0630
0630
0000
0000
0000
0000
0000
0000
0000
0000
0000
0000
0000
0000
0000
0000
0000
0000
0000
0000
0000
0000
0000
ENDCHAR
STARTCHAR COPYRIGHT SIGN
ENCODING 169
SWIDTH 500 0
DWIDTH 12 0
BBX 12 24 0 -2
BITMAP
0000
0000
0000
0000
07c0
0fe0
1c70
1830
6730
6fb0
6cb0
6830
d960
df60
ce60
60c0
e380
7f00
3e00
0000
0000
0000
0000
0000
ENDCHAR
STARTCHAR FEMININE ORDINAL INDICATOR
ENCODING 170
SWIDTH 500 0
DWIDTH 12 0
BBX 12 24 0 -2
BITMAP
03e0
07f0
0630
01f0
07e0
0c60
0fe0
07e0
0000
1fc0
1fc0
0000
0000
0000
0000
0000
0000
0000
0000
0000
0000
0000
0000
0000
ENDCHAR
STARTCHAR LEFT ANGLE QUOTATION MARK
ENCODING 171
SWIDTH 500 0
DWIDTH 12 0
BBX 12 24 0 -2
BITMAP
0000
0000
0000
0000
01b0
0360
0360
06c0
0d80
1b00
1b00
3600
6c00
3600
3600
1b00
3600
1b00
1b00
0d80
0000
0000
0000
0000
ENDCHAR
STARTCHAR NOT SIGN
ENCODING 172
SWIDTH 500 0
DWIDTH 12 0
BBX 12 24 0 -2
BITMAP
0000
0000
0000
0000
0000
0000
0000
0000
0000
0000
0000
7fe0
ffc0
00c0
00c0
00c0
0000
0000
0000
0000
0000
0000
0000
0000
ENDCHAR
STARTCHAR SOFT HYPHEN
ENCODING 173
SWIDTH 500 0
DWIDTH 12 0
BBX 12 24 0 -2
BITMAP
0000
0000
0000
0000
0000
0000
0000
0000
0000
0000
0000
0000
ffc0
ffc0
0000
0000
0000
0000
0000
0000
0000
0000
0000
0000
ENDCHAR
STARTCHAR REGISTERED TRADE MARK SIGN
ENCODING 174
SWIDTH 500 0
DWIDTH 12 0
BBX 12 24 0 -2
BITMAP
0000
0000
0000
0000
07c0
0fe0
1c70
1830
6f30
6db0
6db0
6f30
de60
db60
d960
60c0
e380
7f00
3e00
0000
0000
0000
0000
0000
ENDCHAR
STARTCHAR MACRON
ENCODING 175
SWIDTH 500 0
DWIDTH 12 0
BBX 12 24 0 -2
BITMAP
1ff8
1ff8
0000
0000
0000
0000
0000
0000
0000
0000
0000
0000
0000
0000
0000
0000
0000
0000
0000
0000
0000
0000
0000
0000
ENDCHAR
STARTCHAR DEGREE SIGN, RING ABOVE
ENCODING 176
SWIDTH 500 0
DWIDTH 12 0
BBX 12 24 0 -2
BITMAP
01c0
0360
0360
01c0
0000
0000
0000
0000
0000
0000
0000
0000
0000
0000
0000
0000
0000
0000
0000
0000
0000
0000
0000
0000
ENDCHAR
STARTCHAR PLUS-MINUS SIGN
ENCODING 177
SWIDTH 500 0
DWIDTH 12 0
BBX 12 24 0 -2
BITMAP
0000
0000
0000
0000
0000
0000
0300
0300
0600
3fc0
3fc0
0600
0c00
0c00
0000
0000
ff00
ff00
0000
0000
0000
0000
0000
0000
ENDCHAR
STARTCHAR SUPERSCRIPT TWO
ENCODING 178
SWIDTH 500 0
DWIDTH 12 0
BBX 12 24 0 -2
BITMAP
03e0
07f0
0630
0070
01c0
0380
0700
0e00
1fc0
1fc0
0000
0000
0000
0000
0000
0000
0000
0000
0000
0000
0000
0000
0000
0000
ENDCHAR
STARTCHAR SUPERSCRIPT THREE
ENCODING 179
SWIDTH 500 0
DWIDTH 12 0
BBX 12 24 0 -2
BITMAP
03e0
07f0
0630
0030
03e0
03e0
0060
0c60
1fc0
0f80
0000
0000
0000
0000
0000
0000
0000
0000
0000
0000
0000
0000
0000
0000
ENDCHAR
STARTCHAR ACUTE ACCENT
ENCODING 180
SWIDTH 500 0
DWIDTH 12 0
BBX 12 24 0 -2
BITMAP
00c0
01c0
0300
0000
0000
0000
0000
0000
0000
0000
0000
0000
0000
0000
0000
0000
0000
0000
0000
0000
0000
0000
0000
0000
ENDCHAR
STARTCHAR MICRO SIGN
ENCODING 181
SWIDTH 500 0
DWIDTH 12 0
BBX 12 24 0 -2
BITMAP
0000
0000
0000
0000
0000
0000
0000
0000
0000
0660
0660
0660
0cc0
1d80
1980
1980
3f80
7f80
6180
6000
e000
c000
c000
c000
ENDCHAR
STARTCHAR PILCROW SIGN
ENCODING 182
SWIDTH 500 0
DWIDTH 12 0
BBX 12 24 0 -2
BITMAP
0000
0000
0000
0000
0000
07f0
0fd0
1fd0
3fa0
3fa0
3fa0
1fa0
1f40
0140
0140
0140
0280
0280
0380
0000
0000
0000
0000
0000
ENDCHAR
STARTCHAR MIDDLE DOT
ENCODING 183
SWIDTH 500 0
DWIDTH 12 0
BBX 12 24 0 -2
BITMAP
0000
0000
0000
0000
0000
0000
0000
0000
0000
0000
0600
0f00
1e00
0c00
0000
0000
0000
0000
0000
0000
0000
0000
0000
0000
ENDCHAR
STARTCHAR CEDILLA
ENCODING 184
SWIDTH 500 0
DWIDTH 12 0
BBX 12 24 0 -2
BITMAP
0000
0000
0000
0000
0000
0000
0000
0000
0000
0000
0000
0000
0000
0000
0000
0000
0000
0000
1800
1800
1c00
0600
3e00
3c00
ENDCHAR
STARTCHAR SUPERSCRIPT ONE
ENCODING 185
SWIDTH 500 0
DWIDTH 12 0
BBX 12 24 0 -2
BITMAP
0180
0380
0780
0180
0300
0300
0300
0300
1f80
1f80
0000
0000
0000
0000
0000
0000
0000
0000
0000
0000
0000
0000
0000
0000
ENDCHAR
STARTCHAR MASCULINE ORDINAL INDICATOR
ENCODING 186
SWIDTH 500 0
DWIDTH 12 0
BBX 12 24 0 -2
BITMAP
03e0
07f0
0630
0630
0c60
0c60
0fe0
07c0
0000
1fc0
1fc0
0000
0000
0000
0000
0000
0000
0000
0000
0000
0000
0000
0000
0000
ENDCHAR
STARTCHAR RIGHT ANGLE QUOTATION MARK
ENCODING 187
SWIDTH 500 0
DWIDTH 12 0
BBX 12 24 0 -2
BITMAP
0000
0000
0000
0000
1b00
0d80
0d80
06c0
0d80
06c0
06c0
0360
06c0
0d80
0d80
1b00
3600
6c00
6c00
d800
0000
0000
0000
0000
ENDCHAR
STARTCHAR VULGAR FRACTION ONE QUARTER
ENCODING 188
SWIDTH 500 0
DWIDTH 12 0
BBX 12 24 0 -2
BITMAP
0000
0000
0600
0e00
0c00
0c00
0c00
0c30
3ce0
3dc0
0380
0700
1c00
3980
7380
e780
9b00
1f80
1f80
0300
0300
0000
0000
0000
ENDCHAR
STARTCHAR VULGAR FRACTION ONE HALF
ENCODING 189
SWIDTH 500 0
DWIDTH 12 0
BBX 12 24 0 -2
BITMAP
0000
0000
0600
0e00
0c00
0c00
0c00
0c30
3ce0
3dc0
0380
0700
1c00
3b80
77c0
e6c0
8180
0300
0600
0f80
0f80
0000
0000
0000
ENDCHAR
STARTCHAR VULGAR FRACTION THREE QUARTERS
ENCODING 190
SWIDTH 500 0
DWIDTH 12 0
BBX 12 24 0 -2
BITMAP
0000
0000
0f00
0f80
0300
0e00
0e00
0330
3ee0
3dc0
0380
0700
1c00
3980
7380
e780
9b00
1f80
1f80
0300
0300
0000
0000
0000
ENDCHAR
STARTCHAR INVERTED QUESTION MARK
ENCODING 191
SWIDTH 500 0
DWIDTH 12 0
BBX 12 24 0 -2
BITMAP
0000
0000
0000
0000
0300
0780
0300
0000
0000
0600
0600
0600
1800
3000
6000
6080
e700
7e00
3c00
0000
0000
0000
0000
0000
ENDCHAR
STARTCHAR CAPITAL LETTER A WITH GRAVE ACCENT
ENCODING 192
SWIDTH 500 0
DWIDTH 12 0
BBX 12 24 0 -2
BITMAP
0180
01c0
0060
0000
0000
07c0
0fe0
1c70
3060
3060
3060
3fe0
7fc0
60c0
60c0
60c0
c180
c180
c180
0000
0000
0000
0000
0000
ENDCHAR
STARTCHAR CAPITAL LETTER A WITH ACUTE ACCENT
ENCODING 193
SWIDTH 500 0
DWIDTH 12 0
BBX 12 24 0 -2
BITMAP
00c0
01c0
0300
0000
0000
07c0
0fe0
1c70
3060
3060
3060
3fe0
7fc0
60c0
60c0
60c0
c180
c180
c180
0000
0000
0000
0000
0000
ENDCHAR
STARTCHAR CAPITAL LETTER A WITH CIRCUMFLEX ACCENT
ENCODING 194
SWIDTH 500 0
DWIDTH 12 0
BBX 12 24 0 -2
BITMAP
01c0
03e0
0630
0000
0000
07c0
0fe0
1c70
3060
3060
3060
3fe0
7fc0
60c0
60c0
60c0
c180
c180
c180
0000
0000
0000
0000
0000
ENDCHAR
STARTCHAR CAPITAL LETTER A WITH TILDE
ENCODING 195
SWIDTH 500 0
DWIDTH 12 0
BBX 12 24 0 -2
BITMAP
0708
0d98
08f0
0000
0000
07c0
0fe0
1c70
3060
3060
3060
3fe0
7fc0
60c0
60c0
60c0
c180
c180
c180
0000
0000
0000
0000
0000
ENDCHAR
STARTCHAR CAPITAL LETTER A WITH DIAERESIS
ENCODING 196
SWIDTH 500 0
DWIDTH 12 0
BBX 12 24 0 -2
BITMAP
0000
0630
0630
0000
0000
07c0
0fe0
1c70
3060
3060
3060
3fe0
7fc0
60c0
60c0
60c0
c180
c180
c180
0000
0000
0000
0000
0000
ENDCHAR
STARTCHAR CAPITAL LETTER A WITH RING ABOVE
ENCODING 197
SWIDTH 500 0
DWIDTH 12 0
BBX 12 24 0 -2
BITMAP
01c0
0360
0360
01c0
0000
07c0
0fe0
1c70
3060
3060
3060
3fe0
7fc0
60c0
60c0
60c0
c180
c180
c180
0000
0000
0000
0000
0000
ENDCHAR
STARTCHAR CAPITAL DIPHTHONG A WITH E
ENCODING 198
SWIDTH 500 0
DWIDTH 12 0
BBX 12 24 0 -2
BITMAP
0000
0000
0000
0000
0000
0ff0
0ff0
1980
3300
6300
63e0
7fe0
fe00
c600
c600
c600
8c00
8f80
8f80
0000
0000
0000
0000
0000
ENDCHAR
STARTCHAR CAPITAL LETTER C WITH CEDILLA
ENCODING 199
SWIDTH 500 0
DWIDTH 12 0
BBX 12 24 0 -2
BITMAP
0000
0000
0000
0000
0000
07c0
0fe0
1c70
3060
3000
3000
3000
6000
6000
6000
60c0
e380
7f00
3e00
1800
1c00
0600
3e00
3c00
ENDCHAR
STARTCHAR CAPITAL LETTER E WITH GRAVE ACCENT
ENCODING 200
SWIDTH 500 0
DWIDTH 12 0
BBX 12 24 0 -2
BITMAP
0180
01c0
0060
0000
0000
1ff0
1ff0
1800
3000
3000
3000
3f80
7f00
6000
6000
6000
c000
ff80
ff80
0000
0000
0000
0000
0000
ENDCHAR
STARTCHAR CAPITAL LETTER E WITH ACUTE ACCENT
ENCODING 201
SWIDTH 500 0
DWIDTH 12 0
BBX 12 24 0 -2
BITMAP
00c0
01c0
0300
0000
0000
1ff0
1ff0
1800
3000
3000
3000
3f80
7f00
6000
6000
6000
c000
ff80
ff80
0000
0000
0000
0000
0000
ENDCHAR
STARTCHAR CAPITAL LETTER E WITH CIRCUMFLEX ACCENT
ENCODING 202
SWIDTH 500 0
DWIDTH 12 0
BBX 12 24 0 -2
BITMAP
01c0
03e0
0630
0000
0000
1ff0
1ff0
1800
3000
3000
3000
3f80
7f00
6000
6000
6000
c000
ff80
ff80
0000
0000
0000
0000
0000
ENDCHAR
STARTCHAR CAPITAL LETTER E WITH DIAERESIS
ENCODING 203
SWIDTH 500 0
DWIDTH 12 0
BBX 12 24 0 -2
BITMAP
0000
0630
0630
0000
0000
1ff0
1ff0
1800
3000
3000
3000
3f80
7f00
6000
6000
6000
c000
ff80
ff80
0000
0000
0000
0000
0000
ENDCHAR
STARTCHAR CAPITAL LETTER I WITH GRAVE ACCENT
ENCODING 204
SWIDTH 500 0
DWIDTH 12 0
BBX 12 24 0 -2
BITMAP
0300
0380
00c0
0000
0000
0fc0
0fc0
0300
0600
0600
0600
0600
0c00
0c00
0c00
0c00
1800
7e00
7e00
0000
0000
0000
0000
0000
ENDCHAR
STARTCHAR CAPITAL LETTER I WITH ACUTE ACCENT
ENCODING 205
SWIDTH 500 0
DWIDTH 12 0
BBX 12 24 0 -2
BITMAP
00c0
01c0
0300
0000
0000
0fc0
0fc0
0300
0600
0600
0600
0600
0c00
0c00
0c00
0c00
1800
7e00
7e00
0000
0000
0000
0000
0000
ENDCHAR
STARTCHAR CAPITAL LETTER I WITH CIRCUMFLEX ACCENT
ENCODING 206
SWIDTH 500 0
DWIDTH 12 0
BBX 12 24 0 -2
BITMAP
0180
03c0
0660
0000
0000
0fc0
0fc0
0300
0600
0600
0600
0600
0c00
0c00
0c00
0c00
1800
7e00
7e00
0000
0000
0000
0000
0000
ENDCHAR
STARTCHAR CAPITAL LETTER I WITH DIAERESIS
ENCODING 207
SWIDTH 500 0
DWIDTH 12 0
BBX 12 24 0 -2
BITMAP
0000
0660
0660
0000
0000
0fc0
0fc0
0300
0600
0600
0600
0600
0c00
0c00
0c00
0c00
1800
7e00
7e00
0000
0000
0000
0000
0000
ENDCHAR
STARTCHAR CAPITAL ICELANDIC LETTER ETH
ENCODING 208
SWIDTH 500 0
DWIDTH 12 0
BBX 12 24 0 -2
BITMAP
0000
0000
0000
0000
0000
1fc0
1fe0
1870
3060
3060
3060
7e60
fcc0
60c0
60c0
60c0
c380
ff00
fe00
0000
0000
0000
0000
0000
ENDCHAR
STARTCHAR CAPITAL LETTER N WITH TILDE
ENCODING 209
SWIDTH 500 0
DWIDTH 12 0
BBX 12 24 0 -2
BITMAP
0708
0d98
08f0
0000
0000
1830
1c30
1c30
3c60
3c60
3660
3660
66c0
66c0
63c0
63c0
c380
c380
c180
0000
0000
0000
0000
0000
ENDCHAR
STARTCHAR CAPITAL LETTER O WITH GRAVE ACCENT
ENCODING 210
SWIDTH 500 0
DWIDTH 12 0
BBX 12 24 0 -2
BITMAP
0180
01c0
0060
0000
0000
07c0
0fe0
1c70
3060
3060
3060
3060
60c0
60c0
60c0
60c0
e380
7f00
3e00
0000
0000
0000
0000
0000
ENDCHAR
STARTCHAR CAPITAL LETTER O WITH ACUTE ACCENT
ENCODING 211
SWIDTH 500 0
DWIDTH 12 0
BBX 12 24 0 -2
BITMAP
00c0
01c0
0300
0000
0000
07c0
0fe0
1c70
3060
3060
3060
3060
60c0
60c0
60c0
60c0
e380
7f00
3e00
0000
0000
0000
0000
0000
ENDCHAR
STARTCHAR CAPITAL LETTER O WITH CIRCUMFLEX ACCENT
ENCODING 212
SWIDTH 500 0
DWIDTH 12 0
BBX 12 24 0 -2
BITMAP
01c0
03e0
0630
0000
0000
07c0
0fe0
1c70
3060
3060
3060
3060
60c0
60c0
60c0
60c0
e380
7f00
3e00
0000
0000
0000
0000
0000
ENDCHAR
STARTCHAR CAPITAL LETTER O WITH TILDE
ENCODING 213
SWIDTH 500 0
DWIDTH 12 0
BBX 12 24 0 -2
BITMAP
0708
0d98
08f0
0000
0000
07c0
0fe0
1c70
3060
3060
3060
3060
60c0
60c0
60c0
60c0
e380
7f00
3e00
0000
0000
0000
0000
0000
ENDCHAR
STARTCHAR CAPITAL LETTER O WITH DIAERESIS
ENCODING 214
SWIDTH 500 0
DWIDTH 12 0
BBX 12 24 0 -2
BITMAP
0000
0630
0630
0000
0000
07c0
0fe0
1c70
3060
3060
3060
3060
60c0
60c0
60c0
60c0
e380
7f00
3e00
0000
0000
0000
0000
0000
ENDCHAR
STARTCHAR MULTIPLICATION SIGN
ENCODING 215
SWIDTH 500 0
DWIDTH 12 0
BBX 12 24 0 -2
BITMAP
0000
0000
0000
0000
0000
0000
0000
0000
3060
38e0
1dc0
0f80
0e00
1f00
3b80
71c0
c180
0000
0000
0000
0000
0000
0000
0000
ENDCHAR
STARTCHAR CAPITAL LETTER O WITH OBLIQUE STROKE
ENCODING 216
SWIDTH 500 0
DWIDTH 12 0
BBX 12 24 0 -2
BITMAP
0000
0000
0000
0000
0000
07d0
0ff0
1c70
30e0
31e0
3160
3360
6cc0
68c0
78c0
70c0
e380
ff00
be00
0000
0000
0000
0000
0000
ENDCHAR
STARTCHAR CAPITAL LETTER U WITH GRAVE ACCENT
ENCODING 217
SWIDTH 500 0
DWIDTH 12 0
BBX 12 24 0 -2
BITMAP
0180
01c0
0060
0000
0000
1830
1830
1830
3060
3060
3060
3060
60c0
60c0
60c0
60c0
e380
7f00
3e00
0000
0000
0000
0000
0000
ENDCHAR
STARTCHAR CAPITAL LETTER U WITH ACUTE ACCENT
ENCODING 218
SWIDTH 500 0
DWIDTH 12 0
BBX 12 24 0 -2
BITMAP
00c0
01c0
0300
0000
0000
1830
1830
1830
3060
3060
3060
3060
60c0
60c0
60c0
60c0
e380
7f00
3e00
0000
0000
0000
0000
0000
ENDCHAR
STARTCHAR CAPITAL LETTER U WITH CIRCUMFLEX ACCENT
ENCODING 219
SWIDTH 500 0
DWIDTH 12 0
BBX 12 24 0 -2
BITMAP
01c0
03e0
0630
0000
0000
1830
1830
1830
3060
3060
3060
3060
60c0
60c0
60c0
60c0
e380
7f00
3e00
0000
0000
0000
0000
0000
ENDCHAR
STARTCHAR CAPITAL LETTER U WITH DIAERESIS
ENCODING 220
SWIDTH 500 0
DWIDTH 12 0
BBX 12 24 0 -2
BITMAP
0000
0630
0630
0000
0000
1830
1830
1830
3060
3060
3060
3060
60c0
60c0
60c0
60c0
e380
7f00
3e00
0000
0000
0000
0000
0000
ENDCHAR
STARTCHAR CAPITAL LETTER Y WITH ACUTE ACCENT
ENCODING 221
SWIDTH 500 0
DWIDTH 12 0
BBX 12 24 0 -2
BITMAP
00c0
01c0
0300
0000
0000
3030
3030
1860
30c0
1980
1f80
0f00
0c00
0c00
0c00
0c00
1800
1800
1800
0000
0000
0000
0000
0000
ENDCHAR
STARTCHAR CAPITAL ICELANDIC LETTER THORN
ENCODING 222
SWIDTH 500 0
DWIDTH 12 0
BBX 12 24 0 -2
BITMAP
0000
0000
0000
0000
0000
18c0
19e0
1b30
3c60
3860
3060
3060
70c0
78c0
6cc0
6780
c600
c000
c000
8000
0000
0000
0000
0000
ENDCHAR
STARTCHAR SMALL GERMAN LETTER SHARP s
ENCODING 223
SWIDTH 500 0
DWIDTH 12 0
BBX 12 24 0 -2
BITMAP
0000
0000
0000
0000
0000
07c0
0fe0
1c70
3060
3060
30e0
33c0
67c0
61c0
60c0
60c0
c380
cf00
ce00
0000
0000
0000
0000
0000
ENDCHAR
STARTCHAR SMALL LETTER a WITH GRAVE ACCENT
ENCODING 224
SWIDTH 500 0
DWIDTH 12 0
BBX 12 24 0 -2
BITMAP
0000
0000
0000
0180
0380
00c0
0000
0000
0780
0fc0
1860
0060
0fc0
3fc0
60c0
61c0
c780
fd80
7980
0000
0000
0000
0000
0000
ENDCHAR
STARTCHAR SMALL LETTER a WITH ACUTE ACCENT
ENCODING 225
SWIDTH 500 0
DWIDTH 12 0
BBX 12 24 0 -2
BITMAP
0000
0000
0000
0060
01c0
0300
0000
0000
0780
0fc0
1860
0060
0fc0
3fc0
60c0
61c0
c780
fd80
7980
0000
0000
0000
0000
0000
ENDCHAR
STARTCHAR SMALL LETTER a WITH CIRCUMFLEX ACCENT
ENCODING 226
SWIDTH 500 0
DWIDTH 12 0
BBX 12 24 0 -2
BITMAP
0000
0000
0000
01c0
07c0
0c60
0000
0000
0780
0fc0
1860
0060
0fc0
3fc0
60c0
61c0
c780
fd80
7980
0000
0000
0000
0000
0000
ENDCHAR
STARTCHAR SMALL LETTER a WITH TILDE
ENCODING 227
SWIDTH 500 0
DWIDTH 12 0
BBX 12 24 0 -2
BITMAP
0000
0000
0000
0708
1b30
11e0
0000
0000
0780
0fc0
1860
0060
0fc0
3fc0
60c0
61c0
c780
fd80
7980
0000
0000
0000
0000
0000
ENDCHAR
STARTCHAR SMALL LETTER a WITH DIAERESIS
ENCODING 228
SWIDTH 500 0
DWIDTH 12 0
BBX 12 24 0 -2
BITMAP
0000
0000
0000
0000
0660
0660
0000
0000
0780
0fc0
1860
0060
0fc0
3fc0
60c0
61c0
c780
fd80
7980
0000
0000
0000
0000
0000
ENDCHAR
STARTCHAR SMALL LETTER a WITH RING ABOVE
ENCODING 229
SWIDTH 500 0
DWIDTH 12 0
BBX 12 24 0 -2
BITMAP
0000
0000
0000
01c0
06c0
06c0
0380
0000
0780
0fc0
1860
0060
0fc0
3fc0
60c0
61c0
c780
fd80
7980
0000
0000
0000
0000
0000
ENDCHAR
STARTCHAR SMALL DIPHTHONG a WITH e
ENCODING 230
SWIDTH 500 0
DWIDTH 12 0
BBX 12 24 0 -2
BITMAP
0000
0000
0000
0000
0000
0000
0000
0000
39c0
7fe0
4660
0660
3fc0
7f80
cc00
cc00
9980
ff80
ff00
0000
0000
0000
0000
0000
ENDCHAR
STARTCHAR SMALL LETTER c WITH CEDILLA
ENCODING 231
SWIDTH 500 0
DWIDTH 12 0
BBX 12 24 0 -2
BITMAP
0000
0000
0000
0000
0000
0000
0000
0000
0000
07c0
1fc0
3860
60c0
6000
6000
6000
e180
7f80
3f00
1800
1c00
0600
3e00
3c00
ENDCHAR
STARTCHAR SMALL LETTER e WITH GRAVE ACCENT
ENCODING 232
SWIDTH 500 0
DWIDTH 12 0
BBX 12 24 0 -2
BITMAP
0000
0000
0000
0000
0300
0380
00c0
0000
0000
0f80
1fc0
3860
60c0
7fc0
7fc0
6000
c180
7f80
3f00
0000
0000
0000
0000
0000
ENDCHAR
STARTCHAR SMALL LETTER e WITH ACUTE ACCENT
ENCODING 233
SWIDTH 500 0
DWIDTH 12 0
BBX 12 24 0 -2
BITMAP
0000
0000
0000
0000
0180
0380
0600
0000
0000
0f80
1fc0
3860
60c0
7fc0
7fc0
6000
c180
7f80
3f00
0000
0000
0000
0000
0000
ENDCHAR
STARTCHAR SMALL LETTER e WITH CIRCUMFLEX ACCENT
ENCODING 234
SWIDTH 500 0
DWIDTH 12 0
BBX 12 24 0 -2
BITMAP
0000
0000
0000
0000
0380
07c0
0c60
0000
0000
0f80
1fc0
3860
60c0
7fc0
7fc0
6000
c180
7f80
3f00
0000
0000
0000
0000
0000
ENDCHAR
STARTCHAR SMALL LETTER e WITH DIAERESIS
ENCODING 235
SWIDTH 500 0
DWIDTH 12 0
BBX 12 24 0 -2
BITMAP
0000
0000
0000
0000
0000
0c60
0c60
0000
0000
0f80
1fc0
3860
60c0
7fc0
7fc0
6000
c180
7f80
3f00
0000
0000
0000
0000
0000
ENDCHAR
STARTCHAR SMALL LETTER i WITH GRAVE ACCENT
ENCODING 236
SWIDTH 500 0
DWIDTH 12 0
BBX 12 24 0 -2
BITMAP
0000
0000
0000
0000
0600
0700
0180
0000
0000
0600
0600
0600
0c00
0c00
0c00
0c00
1800
1800
1800
0000
0000
0000
0000
0000
ENDCHAR
STARTCHAR SMALL LETTER i WITH ACUTE ACCENT
ENCODING 237
SWIDTH 500 0
DWIDTH 12 0
BBX 12 24 0 -2
BITMAP
0000
0000
0000
0000
0180
0380
0600
0000
0000
0600
0600
0600
0c00
0c00
0c00
0c00
1800
1800
1800
0000
0000
0000
0000
0000
ENDCHAR
STARTCHAR SMALL LETTER i WITH CIRCUMFLEX ACCENT
ENCODING 238
SWIDTH 500 0
DWIDTH 12 0
BBX 12 24 0 -2
BITMAP
0000
0000
0000
0000
0300
0780
0cc0
0000
0000
0600
0600
0600
0c00
0c00
0c00
0c00
1800
1800
1800
0000
0000
0000
0000
0000
ENDCHAR
STARTCHAR SMALL LETTER i WITH DIAERESIS
ENCODING 239
SWIDTH 500 0
DWIDTH 12 0
BBX 12 24 0 -2
BITMAP
0000
0000
0000
0000
0000
0cc0
0cc0
0000
0000
0600
0600
0600
0c00
0c00
0c00
0c00
1800
1800
1800
0000
0000
0000
0000
0000
ENDCHAR
STARTCHAR SMALL ICELANDIC LETTER ETH
ENCODING 240
SWIDTH 500 0
DWIDTH 12 0
BBX 12 24 0 -2
BITMAP
0000
0000
0000
0000
0000
0e70
0ff0
01c0
0fc0
3ce0
3060
0fe0
3fc0
70c0
60c0
60c0
e380
7f00
3e00
0000
0000
0000
0000
0000
ENDCHAR
STARTCHAR SMALL LETTER n WITH TILDE
ENCODING 241
SWIDTH 500 0
DWIDTH 12 0
BBX 12 24 0 -2
BITMAP
0000
0000
0000
0000
0e10
1b30
11e0
0000
0000
3380
37c0
3c60
70c0
60c0
60c0
60c0
c180
c180
c180
0000
0000
0000
0000
0000
ENDCHAR
STARTCHAR SMALL LETTER o WITH GRAVE ACCENT
ENCODING 242
SWIDTH 500 0
DWIDTH 12 0
BBX 12 24 0 -2
BITMAP
0000
0000
0000
0000
0300
0380
00c0
0000
0000
0f80
1fc0
38e0
60c0
60c0
60c0
60c0
e380
7f00
3e00
0000
0000
0000
0000
0000
ENDCHAR
STARTCHAR SMALL LETTER o WITH ACUTE ACCENT
ENCODING 243
SWIDTH 500 0
DWIDTH 12 0
BBX 12 24 0 -2
BITMAP
0000
0000
0000
0000
0180
0380
0600
0000
0000
0f80
1fc0
38e0
60c0
60c0
60c0
60c0
e380
7f00
3e00
0000
0000
0000
0000
0000
ENDCHAR
STARTCHAR SMALL LETTER o WITH CIRCUMFLEX ACCENT
ENCODING 244
SWIDTH 500 0
DWIDTH 12 0
BBX 12 24 0 -2
BITMAP
0000
0000
0000
0000
0380
07c0
0c60
0000
0000
0f80
1fc0
38e0
60c0
60c0
60c0
60c0
e380
7f00
3e00
0000
0000
0000
0000
0000
ENDCHAR
STARTCHAR SMALL LETTER o WITH TILDE
ENCODING 245
SWIDTH 500 0
DWIDTH 12 0
BBX 12 24 0 -2
BITMAP
0000
0000
0000
0000
0e10
1b30
11e0
0000
0000
0f80
1fc0
38e0
60c0
60c0
60c0
60c0
e380
7f00
3e00
0000
0000
0000
0000
0000
ENDCHAR
STARTCHAR SMALL LETTER o WITH DIAERESIS
ENCODING 246
SWIDTH 500 0
DWIDTH 12 0
BBX 12 24 0 -2
BITMAP
0000
0000
0000
0000
0000
0c60
0c60
0000
0000
0f80
1fc0
38e0
60c0
60c0
60c0
60c0
e380
7f00
3e00
0000
0000
0000
0000
0000
ENDCHAR
STARTCHAR DIVISION SIGN
ENCODING 247
SWIDTH 500 0
DWIDTH 12 0
BBX 12 24 0 -2
BITMAP
0000
0000
0000
0000
0000
0000
0000
0300
0f00
0600
0000
7fe0
ffc0
0000
0c00
1e00
1800
0000
0000
0000
0000
0000
0000
0000
ENDCHAR
STARTCHAR SMALL LETTER o WITH OBLIQUE STROKE
ENCODING 248
SWIDTH 500 0
DWIDTH 12 0
BBX 12 24 0 -2
BITMAP
0000
0000
0000
0000
0000
0000
0000
0000
0000
0f60
1fe0
39c0
67c0
66c0
6ec0
7cc0
7380
ff00
de00
0000
0000
0000
0000
0000
ENDCHAR
STARTCHAR SMALL LETTER u WITH GRAVE ACCENT
ENCODING 249
SWIDTH 500 0
DWIDTH 12 0
BBX 12 24 0 -2
BITMAP
0000
0000
0000
0000
0300
0380
00c0
0000
0000
3060
3060
3060
60c0
60c0
60c0
61c0
e780
7d80
3980
0000
0000
0000
0000
0000
ENDCHAR
STARTCHAR SMALL LETTER u WITH ACUTE ACCENT
ENCODING 250
SWIDTH 500 0
DWIDTH 12 0
BBX 12 24 0 -2
BITMAP
0000
0000
0000
0000
0180
0380
0600
0000
0000
3060
3060
3060
60c0
60c0
60c0
61c0
e780
7d80
3980
0000
0000
0000
0000
0000
ENDCHAR
STARTCHAR SMALL LETTER u WITH CIRCUMFLEX ACCENT
ENCODING 251
SWIDTH 500 0
DWIDTH 12 0
BBX 12 24 0 -2
BITMAP
0000
0000
0000
0000
0380
07c0
0c60
0000
0000
3060
3060
3060
60c0
60c0
60c0
61c0
e780
7d80
3980
0000
0000
0000
0000
0000
ENDCHAR
STARTCHAR SMALL LETTER u WITH DIAERESIS
ENCODING 252
SWIDTH 500 0
DWIDTH 12 0
BBX 12 24 0 -2
BITMAP
0000
0000
0000
0000
0000
0c60
0c60
0000
0000
3060
3060
3060
60c0
60c0
60c0
61c0
e780
7d80
3980
0000
0000
0000
0000
0000
ENDCHAR
STARTCHAR SMALL LETTER y WITH ACUTE ACCENT
ENCODING 253
SWIDTH 500 0
DWIDTH 12 0
BBX 12 24 0 -2
BITMAP
0000
0000
0000
0000
00c0
01c0
0300
0000
0000
3060
3060
3060
60c0
60c0
60c0
60c0
e380
7f80
3d80
0180
0300
0300
7f00
3e00
ENDCHAR
STARTCHAR SMALL ICELANDIC LETTER THORN
ENCODING 254
SWIDTH 500 0
DWIDTH 12 0
BBX 12 24 0 -2
BITMAP
0000
0000
0000
0000
0000
0c00
0c00
0c00
1800
19c0
1be0
1e70
3860
3060
3060
30e0
6380
7f00
7e00
6000
e000
c000
c000
c000
ENDCHAR
STARTCHAR SMALL LETTER y WITH DIAERESIS
ENCODING 255
SWIDTH 500 0
DWIDTH 12 0
BBX 12 24 0 -2
BITMAP
0000
0000
0000
0000
0000
0c60
0c60
0000
0000
3060
3060
3060
60c0
60c0
60c0
60c0
e380
7f80
3d80
0180
0300
0300
7f00
3e00
ENDCHAR
ENDFONT
